<?xml version="1.0" standalone="no"?><svg xmlns:xlink="http://www.w3.org/1999/xlink" xmlns="http://www.w3.org/2000/svg" viewBox="0 0 1000 142.8467614533965" preserveAspectRatio="xMaxYMax slice"><g transform="scale(0.7898894154818326)"><rect x="0" y="0" width="1266" height="180.85714285714286" fill="#ffffff"/><rect x="0" y="0" width="180.86" height="180.86" fill="#ffffff"/><rect x="0" y="0" width="180.86" height="180.86" fill="#edf1b9"/><rect x="180.86" y="0" width="180.86" height="180.86" fill="#ffffff"/><path d="M 180.86 180.86 A 180.86 180.86 0 0 1  361.72 0 L 361.72 180.86" fill="#f2f5cc"/><rect x="361.71" y="0" width="180.86" height="180.86" fill="#e6ec9d"/><polygon points="361.71,0 542.5699999999999,180.86 361.71,180.86" fill="#ffffff"/><rect x="542.57" y="0" width="180.86" height="180.86" fill="#f2f5ca"/><rect x="542.57" y="0" width="180.86" height="180.86" fill="#cad52d"/><rect x="723.43" y="0" width="180.86" height="180.86" fill="#dee57e"/><path d="M 723.43 180.86 A 180.86 180.86 0 0 1  904.29 0 L 723.43 180.86 A 180.86 180.86 0 0 0 904.29 0" fill="#ffffff"/><rect x="904.29" y="0" width="180.86" height="180.86" fill="#ffffff"/><polygon points="1085.15,0 1085.15,180.86 904.29,180.86" fill="#ffffff"/><rect x="1085.14" y="0" width="180.86" height="180.86" fill="#ffffff"/><polygon points="1085.14,0 1266,180.86 1085.14,180.86" fill="#e8eda4"/></g></svg>