<?xml version="1.0" standalone="no"?><svg xmlns:xlink="http://www.w3.org/1999/xlink" xmlns="http://www.w3.org/2000/svg" viewBox="0 0 1000 95.23064770932069" preserveAspectRatio="xMaxYMax slice"><g transform="scale(0.7898894154818326)"><rect x="0" y="0" width="1266" height="120.57142857142857" fill="#ffffff"/><rect x="0" y="0" width="60.29" height="60.29" fill="#ffffff"/><polygon points="0,0 60.29,0 60.29,60.29" fill="#ffffff"/><rect x="60.29" y="0" width="60.29" height="60.29" fill="#e6ec9e"/><polygon points="60.29,0 120.58,0 120.58,60.29" fill="#c3cab4"/><rect x="120.57" y="0" width="60.29" height="60.29" fill="#d3d8c8"/><rect x="120.57" y="0" width="60.29" height="60.29" fill="#484848"/><rect x="180.86" y="0" width="60.29" height="60.29" fill="#4f4f4f"/><polygon points="241.15,0 241.15,60.29 180.86,60.29" fill="#f4f5f1"/><rect x="241.14" y="0" width="60.29" height="60.29" fill="#494949"/><path d="M 241.14 0 A 60.29 60.29 0 0 0 301.43 60.29 L 301.43 0" fill="#e6eb9b"/><rect x="301.43" y="0" width="60.29" height="60.29" fill="#282828"/><polygon points="301.43,0 361.72,0 301.43,60.29" fill="#ffffff"/><rect x="361.71" y="0" width="60.29" height="60.29" fill="#f2f3ee"/><rect x="361.71" y="0" width="60.29" height="60.29" fill="#ffffff"/><rect x="422" y="0" width="60.29" height="60.29" fill="#5b5b5b"/><path d="M 422 60.29 A 60.29 60.29 0 0 0 482.29 0 L 422 0" fill="#5e5e5e"/><rect x="482.29" y="0" width="60.29" height="60.29" fill="#fafaf8"/><polygon points="482.29,0 542.58,0 482.29,60.29" fill="#ffffff"/><rect x="542.57" y="0" width="60.29" height="60.29" fill="#ffffff"/><path d="M 542.57 0 A 60.29 60.29 0 0 0 602.86 60.29 L 602.86 0" fill="#e5eb99"/><rect x="602.86" y="0" width="60.29" height="60.29" fill="#ffffff"/><rect x="602.86" y="0" width="60.29" height="60.29" fill="#e6e9e0"/><rect x="663.14" y="0" width="60.29" height="60.29" fill="#ffffff"/><polygon points="663.14,0 723.43,0 723.43,60.29" fill="#eaece4"/><rect x="723.43" y="0" width="60.29" height="60.29" fill="#1e1e1e"/><path d="M 723.43 0 A 60.29 60.29 0 0 1 783.7199999999999 60.29 L 723.43 60.29" fill="#f3f5f0"/><rect x="783.71" y="0" width="60.29" height="60.29" fill="#fafafa"/><polygon points="783.71,0 844,60.29 783.71,60.29" fill="#eff1ea"/><rect x="844" y="0" width="60.29" height="60.29" fill="#ffffff"/><polygon points="844,0 904.29,60.29 844,60.29" fill="#ccd734"/><rect x="904.29" y="0" width="60.29" height="60.29" fill="#848484"/><path d="M 904.29 60.29 A 60.29 60.29 0 0 1  964.5799999999999 0 L 904.29 60.29 A 60.29 60.29 0 0 0 964.5799999999999 0" fill="#cdd739"/><rect x="964.57" y="0" width="60.29" height="60.29" fill="#c7d323"/><path d="M 964.57 60.29 A 60.29 60.29 0 0 1  1024.8600000000001 0 L 964.57 60.29 A 60.29 60.29 0 0 0 1024.8600000000001 0" fill="#ffffff"/><rect x="1024.86" y="0" width="60.29" height="60.29" fill="#f0f3c2"/><path d="M 1024.86 0 A 60.29 60.29 0 0 0 1085.1499999999999 60.29 L 1085.1499999999999 0" fill="#888888"/><rect x="1085.14" y="0" width="60.29" height="60.29" fill="#f8f9f7"/><path d="M 1085.14 60.29 A 60.29 60.29 0 0 1  1145.43 0 L 1145.43 60.29" fill="#d9ddcf"/><rect x="1145.43" y="0" width="60.29" height="60.29" fill="#d4dd56"/><polygon points="1205.72,0 1205.72,60.29 1145.43,60.29" fill="#0e0e0e"/><rect x="1205.71" y="0" width="60.29" height="60.29" fill="#ebefae"/><path d="M 1205.71 60.29 A 60.29 60.29 0 0 0 1266 0 L 1205.71 0" fill="#e3e3e3"/><rect x="0" y="60.29" width="60.29" height="60.29" fill="#e1e1e1"/><rect x="0" y="60.29" width="60.29" height="60.29" fill="#eef1ba"/><rect x="60.29" y="60.29" width="60.29" height="60.29" fill="#ffffff"/><path d="M 60.29 60.29 A 60.29 60.29 0 0 0 120.58 120.58 L 120.58 60.29" fill="#dde1d5"/><rect x="120.57" y="60.29" width="60.29" height="60.29" fill="#f6f7f4"/><path d="M 120.57 60.29 A 60.29 60.29 0 0 1  180.85999999999999 120.58 L 120.57 60.29 A 60.29 60.29 0 0 0 180.85999999999999 120.58" fill="#d2dc4e"/><rect x="180.86" y="60.29" width="60.29" height="60.29" fill="#edf1b7"/><polygon points="241.15,60.29 241.15,120.58 180.86,120.58" fill="#ffffff"/><rect x="241.14" y="60.29" width="60.29" height="60.29" fill="#ffffff"/><path d="M 241.14 120.58 A 60.29 60.29 0 0 0 301.43 60.29 L 241.14 60.29" fill="#f1f3ed"/><rect x="301.43" y="60.29" width="60.29" height="60.29" fill="#f4f4f4"/><path d="M 301.43 60.29 A 60.29 60.29 0 0 0 361.72 120.58 L 361.72 60.29" fill="#ffffff"/><rect x="361.71" y="60.29" width="60.29" height="60.29" fill="#dee57d"/><polygon points="422,60.29 422,120.58 361.71,120.58" fill="#ffffff"/><rect x="422" y="60.29" width="60.29" height="60.29" fill="#d3dc52"/><polygon points="422,60.29 482.29,60.29 482.29,120.58" fill="#ffffff"/><rect x="482.29" y="60.29" width="60.29" height="60.29" fill="#d4d9c9"/><path d="M 482.29 120.58 A 60.29 60.29 0 0 0 542.58 60.29 L 482.29 60.29" fill="#ffffff"/><rect x="542.57" y="60.29" width="60.29" height="60.29" fill="#fbfcf0"/><rect x="542.57" y="60.29" width="60.29" height="60.29" fill="#eff1ea"/><rect x="602.86" y="60.29" width="60.29" height="60.29" fill="#eff3c0"/><path d="M 602.86 60.29 A 60.29 60.29 0 0 1 663.15 120.58 L 602.86 120.58" fill="#f2f2f2"/><rect x="663.14" y="60.29" width="60.29" height="60.29" fill="#c8d426"/><polygon points="723.43,60.29 723.43,120.58 663.14,120.58" fill="#e1e4d9"/><rect x="723.43" y="60.29" width="60.29" height="60.29" fill="#ffffff"/><path d="M 723.43 60.29 A 60.29 60.29 0 0 0 783.7199999999999 120.58 L 783.7199999999999 60.29" fill="#c7cdb8"/><rect x="783.71" y="60.29" width="60.29" height="60.29" fill="#f0f2ec"/><path d="M 783.71 60.29 A 60.29 60.29 0 0 1  844 120.58 L 783.71 60.29 A 60.29 60.29 0 0 0 844 120.58" fill="#ffffff"/><rect x="844" y="60.29" width="60.29" height="60.29" fill="#d8e064"/><path d="M 844 120.58 A 60.29 60.29 0 0 1  904.29 60.29 L 844 120.58 A 60.29 60.29 0 0 0 904.29 60.29" fill="#dfe3d7"/><rect x="904.29" y="60.29" width="60.29" height="60.29" fill="#dde1d4"/><rect x="904.29" y="60.29" width="60.29" height="60.29" fill="#d9ddcf"/><rect x="964.57" y="60.29" width="60.29" height="60.29" fill="#c2c9b2"/><polygon points="964.57,60.29 1024.8600000000001,60.29 964.57,120.58" fill="#f2f3ee"/><rect x="1024.86" y="60.29" width="60.29" height="60.29" fill="#ffffff"/><polygon points="1024.86,60.29 1085.1499999999999,60.29 1085.1499999999999,120.58" fill="#c1c8b1"/><rect x="1085.14" y="60.29" width="60.29" height="60.29" fill="#c5ccb7"/><polygon points="1085.14,60.29 1145.43,120.58 1085.14,120.58" fill="#b0b0b0"/><rect x="1145.43" y="60.29" width="60.29" height="60.29" fill="#ffffff"/><rect x="1145.43" y="60.29" width="60.29" height="60.29" fill="#ffffff"/><rect x="1205.71" y="60.29" width="60.29" height="60.29" fill="#f0f2ec"/><polygon points="1205.71,60.29 1266,120.58 1205.71,120.58" fill="#737373"/></g></svg>