<?xml version="1.0" standalone="no"?><svg xmlns:xlink="http://www.w3.org/1999/xlink" xmlns="http://www.w3.org/2000/svg" viewBox="0 0 1000 95.23064770932069" preserveAspectRatio="xMaxYMax slice"><g transform="scale(0.7898894154818326)"><rect x="0" y="0" width="1266" height="120.57142857142857" fill="#ffffff"/><rect x="0" y="0" width="60.29" height="60.29" fill="#838383"/><path d="M 0 0 A 60.29 60.29 0 0 0 60.29 60.29 L 60.29 0" fill="#fdfefd"/><rect x="60.285714285714285" y="0" width="60.285714285714285" height="60.285714285714285" fill="#ffffff"/><rect x="60.29" y="0" width="30.14" height="30.14" fill="#e9e9e9"/><path d="M 60.29 30.14 A 30.14 30.14 0 0 0 90.43 0 L 60.29 0" fill="#dde57a"/><rect x="90.43" y="0" width="30.14" height="30.14" fill="#ababab"/><path d="M 90.43 0 A 30.14 30.14 0 0 0 120.57000000000001 30.14 L 120.57000000000001 0" fill="#f1f2ed"/><rect x="60.29" y="30.14" width="30.14" height="30.14" fill="#3c3c3c"/><path d="M 60.29 30.14 A 30.14 30.14 0 0 1 90.43 60.28 L 60.29 60.28" fill="#f2f2f2"/><rect x="90.43" y="30.14" width="30.14" height="30.14" fill="#dee2d6"/><path d="M 90.43 60.28 A 30.14 30.14 0 0 1  120.57000000000001 30.14 L 120.57000000000001 60.28" fill="#767676"/><rect x="120.57" y="0" width="60.29" height="60.29" fill="#f1f4c9"/><polygon points="120.57,0 180.85999999999999,60.29 120.57,60.29" fill="#070707"/><rect x="180.85714285714286" y="0" width="60.285714285714285" height="60.285714285714285" fill="#ffffff"/><rect x="180.86" y="0" width="30.14" height="30.14" fill="#ffffff"/><polygon points="211,0 211,30.14 180.86,30.14" fill="#ffffff"/><rect x="211" y="0" width="30.14" height="30.14" fill="#cad630"/><polygon points="211,0 241.14,30.14 211,30.14" fill="#b9b9b9"/><rect x="180.86" y="30.14" width="30.14" height="30.14" fill="#edefe8"/><polygon points="180.86,30.14 211,30.14 211,60.28" fill="#e2e88d"/><rect x="211" y="30.14" width="30.14" height="30.14" fill="#ffffff"/><polygon points="211,30.14 241.14,30.14 211,60.28" fill="#c5ccb6"/><rect x="241.14" y="0" width="60.29" height="60.29" fill="#f1f4c8"/><polygon points="241.14,0 301.43,60.29 241.14,60.29" fill="#1e1e1e"/><rect x="301.42857142857144" y="0" width="60.285714285714285" height="60.285714285714285" fill="#ffffff"/><rect x="301.43" y="0" width="30.14" height="30.14" fill="#ffffff"/><circle cx="316.5" cy="15.07" r="15.07" fill="#d9e16a"/><rect x="331.57" y="0" width="30.14" height="30.14" fill="#e3e992"/><rect x="331.57" y="0" width="30.14" height="30.14" fill="#ffffff"/><rect x="301.43" y="30.14" width="30.14" height="30.14" fill="#eef2be"/><circle cx="316.5" cy="45.21" r="15.07" fill="#c2c9b2"/><rect x="331.57" y="30.14" width="30.14" height="30.14" fill="#ffffff"/><rect x="331.57" y="30.14" width="30.14" height="30.14" fill="#f7f7f4"/><rect x="361.7142857142857" y="0" width="60.285714285714285" height="60.285714285714285" fill="#ffffff"/><rect x="361.71" y="0" width="30.14" height="30.14" fill="#cad52c"/><path d="M 361.71 30.14 A 30.14 30.14 0 0 1 391.84999999999997 0 L 391.84999999999997 7.535 A 22.605 22.605 0 0 0 369.245 30.14" fill="#f0f3c5"/><rect x="391.86" y="0" width="30.14" height="30.14" fill="#4c4c4c"/><path d="M 391.86 0 A 30.14 30.14 0 0 1 422 30.14 L 414.46500000000003 30.14 A 22.605 22.605 0 0 0 391.86 7.535" fill="#f6f8dc"/><rect x="361.71" y="30.14" width="30.14" height="30.14" fill="#ffffff"/><path d="M 361.71 30.14 A 30.14 30.14 0 0 0 391.84999999999997 60.28 L 391.84999999999997 52.745000000000005 A 22.605 22.605 0 0 1 369.245 30.14" fill="#f1f4c6"/><rect x="391.86" y="30.14" width="30.14" height="30.14" fill="#ffffff"/><path d="M 391.86 60.28 A 30.14 30.14 0 0 0 422 30.14 L 414.46500000000003 30.14 A 22.605 22.605 0 0 1 391.86 52.745000000000005" fill="#ffffff"/><rect x="422" y="0" width="60.285714285714285" height="60.285714285714285" fill="#ffffff"/><rect x="422" y="0" width="30.14" height="30.14" fill="#ffffff"/><path d="M 422 0 A 30.14 30.14 0 0 1 452.14 30.14 L 422 30.14" fill="#d9e16a"/><rect x="452.14" y="0" width="30.14" height="30.14" fill="#d7e061"/><path d="M 452.14 30.14 A 30.14 30.14 0 0 1  482.28 0 L 482.28 30.14" fill="#b9b9b9"/><rect x="422" y="30.14" width="30.14" height="30.14" fill="#d1d6c5"/><path d="M 422 60.28 A 30.14 30.14 0 0 0 452.14 30.14 L 422 30.14" fill="#fbfcf0"/><rect x="452.14" y="30.14" width="30.14" height="30.14" fill="#f5f7d7"/><path d="M 452.14 30.14 A 30.14 30.14 0 0 0 482.28 60.28 L 482.28 30.14" fill="#dee1d5"/><rect x="482.29" y="0" width="60.29" height="60.29" fill="#e8eda3"/><polygon points="482.29,0 542.58,0 482.29,60.29" fill="#b7b7b7"/><rect x="542.5714285714286" y="0" width="60.285714285714285" height="60.285714285714285" fill="#ffffff"/><rect x="542.57" y="0" width="30.14" height="30.14" fill="#838383"/><polygon points="572.71,0 572.71,30.14 542.57,30.14" fill="#ffffff"/><rect x="572.71" y="0" width="30.14" height="30.14" fill="#cdd739"/><polygon points="572.71,0 602.85,30.14 572.71,30.14" fill="#ffffff"/><rect x="542.57" y="30.14" width="30.14" height="30.14" fill="#ffffff"/><polygon points="542.57,30.14 572.71,30.14 542.57,60.28" fill="#dde1d5"/><rect x="572.71" y="30.14" width="30.14" height="30.14" fill="#f2f5ce"/><polygon points="572.71,30.14 602.85,30.14 602.85,60.28" fill="#d2dc4f"/><rect x="602.86" y="0" width="60.29" height="60.29" fill="#e4e4e4"/><polygon points="602.86,0 663.15,60.29 602.86,60.29" fill="#ffffff"/><rect x="663.14" y="0" width="60.29" height="60.29" fill="#cbd1be"/><rect x="663.14" y="0" width="60.29" height="60.29" fill="#c8d427"/><rect x="723.43" y="0" width="60.29" height="60.29" fill="#ffffff"/><polygon points="723.43,0 783.7199999999999,0 783.7199999999999,60.29" fill="#ffffff"/><rect x="783.71" y="0" width="60.29" height="60.29" fill="#e6e9e0"/><rect x="783.71" y="0" width="60.29" height="60.29" fill="#d8ddce"/><rect x="844" y="0" width="60.29" height="60.29" fill="#ffffff"/><polygon points="844,0 904.29,60.29 844,60.29" fill="#ffffff"/><rect x="904.2857142857142" y="0" width="60.285714285714285" height="60.285714285714285" fill="#ffffff"/><rect x="904.29" y="0" width="30.14" height="30.14" fill="#1d1d1d"/><path d="M 904.29 30.14 A 30.14 30.14 0 0 1 934.43 0 L 934.43 7.535 A 22.605 22.605 0 0 0 911.8249999999999 30.14" fill="#6d6d6d"/><rect x="934.43" y="0" width="30.14" height="30.14" fill="#fdfdf6"/><path d="M 934.43 0 A 30.14 30.14 0 0 1 964.5699999999999 30.14 L 957.035 30.14 A 22.605 22.605 0 0 0 934.43 7.535" fill="#3b3b3b"/><rect x="904.29" y="30.14" width="30.14" height="30.14" fill="#f5f6f2"/><path d="M 904.29 30.14 A 30.14 30.14 0 0 0 934.43 60.28 L 934.43 52.745000000000005 A 22.605 22.605 0 0 1 911.8249999999999 30.14" fill="#c8ceba"/><rect x="934.43" y="30.14" width="30.14" height="30.14" fill="#ebefaf"/><path d="M 934.43 60.28 A 30.14 30.14 0 0 0 964.5699999999999 30.14 L 957.035 30.14 A 22.605 22.605 0 0 1 934.43 52.745000000000005" fill="#a7a7a7"/><rect x="964.5714285714286" y="0" width="60.285714285714285" height="60.285714285714285" fill="#ffffff"/><rect x="964.57" y="0" width="30.14" height="30.14" fill="#c9d52c"/><path d="M 964.57 30.14 A 30.14 30.14 0 0 0 994.71 0 L 964.57 0" fill="#dce375"/><rect x="994.71" y="0" width="30.14" height="30.14" fill="#ffffff"/><path d="M 994.71 0 A 30.14 30.14 0 0 0 1024.8500000000001 30.14 L 1024.8500000000001 0" fill="#d0da46"/><rect x="964.57" y="30.14" width="30.14" height="30.14" fill="#cad0bc"/><path d="M 964.57 30.14 A 30.14 30.14 0 0 1 994.71 60.28 L 964.57 60.28" fill="#d8e065"/><rect x="994.71" y="30.14" width="30.14" height="30.14" fill="#fffffe"/><path d="M 994.71 60.28 A 30.14 30.14 0 0 1  1024.8500000000001 30.14 L 1024.8500000000001 60.28" fill="#bebebe"/><rect x="1024.86" y="0" width="60.29" height="60.29" fill="#d7dccd"/><path d="M 1024.86 0 A 60.29 60.29 0 0 1 1085.1499999999999 60.29 L 1024.86 60.29" fill="#dbe370"/><rect x="1085.14" y="0" width="60.29" height="60.29" fill="#e5eb99"/><polygon points="1085.14,0 1145.43,0 1145.43,60.29" fill="#ffffff"/><rect x="1145.4285714285713" y="0" width="60.285714285714285" height="60.285714285714285" fill="#ffffff"/><rect x="1145.43" y="0" width="30.14" height="30.14" fill="#f7f9e1"/><polygon points="1175.5700000000002,0 1175.5700000000002,30.14 1145.43,30.14" fill="#e4ea95"/><rect x="1175.57" y="0" width="30.14" height="30.14" fill="#afafaf"/><polygon points="1175.57,0 1205.71,30.14 1175.57,30.14" fill="#6e6e6e"/><rect x="1145.43" y="30.14" width="30.14" height="30.14" fill="#ffffff"/><polygon points="1145.43,30.14 1175.5700000000002,30.14 1175.5700000000002,60.28" fill="#f8f8f8"/><rect x="1175.57" y="30.14" width="30.14" height="30.14" fill="#e7e9e0"/><polygon points="1175.57,30.14 1205.71,30.14 1175.57,60.28" fill="#fdfef9"/><rect x="1205.71" y="0" width="60.29" height="60.29" fill="#b0b0b0"/><polygon points="1205.71,0 1266,0 1205.71,60.29" fill="#ffffff"/><rect x="0" y="60.285714285714285" width="60.285714285714285" height="60.285714285714285" fill="#ffffff"/><rect x="0" y="60.29" width="30.14" height="30.14" fill="#ffffff"/><path d="M 0 60.29 A 30.14 30.14 0 0 1 30.14 90.43 L 0 90.43" fill="#b0b0b0"/><rect x="30.14" y="60.29" width="30.14" height="30.14" fill="#cbd631"/><path d="M 30.14 90.43 A 30.14 30.14 0 0 1  60.28 60.29 L 60.28 90.43" fill="#f2f4ef"/><rect x="0" y="90.43" width="30.14" height="30.14" fill="#f7f8f5"/><path d="M 0 120.57000000000001 A 30.14 30.14 0 0 0 30.14 90.43 L 0 90.43" fill="#ffffff"/><rect x="30.14" y="90.43" width="30.14" height="30.14" fill="#f2f5cb"/><path d="M 30.14 90.43 A 30.14 30.14 0 0 0 60.28 120.57000000000001 L 60.28 90.43" fill="#dbdfd2"/><rect x="60.29" y="60.29" width="60.29" height="60.29" fill="#f8f8f8"/><polygon points="60.29,60.29 120.58,120.58 60.29,120.58" fill="#cdd3c0"/><rect x="120.57" y="60.29" width="60.29" height="60.29" fill="#f5f6f2"/><polygon points="120.57,60.29 180.85999999999999,60.29 180.85999999999999,120.58" fill="#ffffff"/><rect x="180.86" y="60.29" width="60.29" height="60.29" fill="#ffffff"/><path d="M 180.86 60.29 A 60.29 60.29 0 0 1 241.15 120.58 L 180.86 120.58" fill="#ffffff"/><rect x="241.14" y="60.29" width="60.29" height="60.29" fill="#070707"/><polygon points="241.14,60.29 301.43,60.29 301.43,120.58" fill="#e2e88c"/><rect x="301.42857142857144" y="60.285714285714285" width="60.285714285714285" height="60.285714285714285" fill="#ffffff"/><rect x="301.43" y="60.29" width="30.14" height="30.14" fill="#ebede5"/><polygon points="331.57,60.29 331.57,90.43 301.43,90.43" fill="#e4e7de"/><rect x="331.57" y="60.29" width="30.14" height="30.14" fill="#1f1f1f"/><polygon points="331.57,60.29 361.71,90.43 331.57,90.43" fill="#d6df5f"/><rect x="301.43" y="90.43" width="30.14" height="30.14" fill="#191919"/><polygon points="301.43,90.43 331.57,90.43 301.43,120.57000000000001" fill="#e8e8e8"/><rect x="331.57" y="90.43" width="30.14" height="30.14" fill="#ffffff"/><polygon points="331.57,90.43 361.71,90.43 361.71,120.57000000000001" fill="#e0e785"/><rect x="361.7142857142857" y="60.285714285714285" width="60.285714285714285" height="60.285714285714285" fill="#ffffff"/><rect x="361.71" y="60.29" width="30.14" height="30.14" fill="#f4f7d5"/><polygon points="391.84999999999997,60.29 391.84999999999997,90.43 361.71,90.43" fill="#d3dc4f"/><rect x="391.86" y="60.29" width="30.14" height="30.14" fill="#e2e2e2"/><polygon points="391.86,60.29 422,90.43 391.86,90.43" fill="#151515"/><rect x="361.71" y="90.43" width="30.14" height="30.14" fill="#ffffff"/><polygon points="361.71,90.43 391.84999999999997,90.43 391.84999999999997,120.57000000000001" fill="#e3e990"/><rect x="391.86" y="90.43" width="30.14" height="30.14" fill="#666666"/><polygon points="391.86,90.43 422,90.43 391.86,120.57000000000001" fill="#f6f8dd"/><rect x="422" y="60.29" width="60.29" height="60.29" fill="#4d4d4d"/><polygon points="422,60.29 482.29,60.29 422,120.58" fill="#ffffff"/><rect x="482.2857142857143" y="60.285714285714285" width="60.285714285714285" height="60.285714285714285" fill="#ffffff"/><rect x="482.29" y="60.29" width="30.14" height="30.14" fill="#ffffff"/><path d="M 482.29 60.29 A 30.14 30.14 0 0 0 512.4300000000001 90.43 L 512.4300000000001 60.29" fill="#404040"/><rect x="512.43" y="60.29" width="30.14" height="30.14" fill="#f3f4f0"/><path d="M 512.43 90.43 A 30.14 30.14 0 0 0 542.5699999999999 60.29 L 512.43 60.29" fill="#e8eda4"/><rect x="482.29" y="90.43" width="30.14" height="30.14" fill="#f3f6d0"/><path d="M 482.29 120.57000000000001 A 30.14 30.14 0 0 1  512.4300000000001 90.43 L 512.4300000000001 120.57000000000001" fill="#d7dbcd"/><rect x="512.43" y="90.43" width="30.14" height="30.14" fill="#e4e7dc"/><path d="M 512.43 90.43 A 30.14 30.14 0 0 1 542.5699999999999 120.57000000000001 L 512.43 120.57000000000001" fill="#404040"/><rect x="542.57" y="60.29" width="60.29" height="60.29" fill="#858585"/><polygon points="542.57,60.29 602.86,120.58 542.57,120.58" fill="#262626"/><rect x="602.86" y="60.29" width="60.29" height="60.29" fill="#e4e7dd"/><rect x="602.86" y="60.29" width="60.29" height="60.29" fill="#ffffff"/><rect x="663.1428571428571" y="60.285714285714285" width="60.285714285714285" height="60.285714285714285" fill="#ffffff"/><rect x="663.14" y="60.29" width="30.14" height="30.14" fill="#ffffff"/><path d="M 663.14 90.43 A 30.14 30.14 0 0 1 693.28 60.29 L 693.28 67.825 A 22.605 22.605 0 0 0 670.675 90.43" fill="#8c8c8c"/><rect x="693.29" y="60.29" width="30.14" height="30.14" fill="#cbd632"/><path d="M 693.29 60.29 A 30.14 30.14 0 0 1 723.43 90.43 L 715.895 90.43 A 22.605 22.605 0 0 0 693.29 67.825" fill="#d6dbcb"/><rect x="663.14" y="90.43" width="30.14" height="30.14" fill="#ffffff"/><path d="M 663.14 90.43 A 30.14 30.14 0 0 0 693.28 120.57000000000001 L 693.28 113.03500000000001 A 22.605 22.605 0 0 1 670.675 90.43" fill="#c4cbb5"/><rect x="693.29" y="90.43" width="30.14" height="30.14" fill="#fffffd"/><path d="M 693.29 120.57000000000001 A 30.14 30.14 0 0 0 723.43 90.43 L 715.895 90.43 A 22.605 22.605 0 0 1 693.29 113.03500000000001" fill="#666666"/><rect x="723.43" y="60.29" width="60.29" height="60.29" fill="#ffffff"/><path d="M 723.43 60.29 A 60.29 60.29 0 0 1  783.7199999999999 120.58 L 723.43 60.29 A 60.29 60.29 0 0 0 783.7199999999999 120.58" fill="#e5e5e5"/><rect x="783.71" y="60.29" width="60.29" height="60.29" fill="#676767"/><path d="M 783.71 120.58 A 60.29 60.29 0 0 1  844 60.29 L 783.71 120.58 A 60.29 60.29 0 0 0 844 60.29" fill="#6c6c6c"/><rect x="844" y="60.285714285714285" width="60.285714285714285" height="60.285714285714285" fill="#ffffff"/><rect x="844" y="60.29" width="30.14" height="30.14" fill="#999999"/><path d="M 844 60.29 A 30.14 30.14 0 0 1 874.14 90.43 L 844 90.43" fill="#ffffff"/><rect x="874.14" y="60.29" width="30.14" height="30.14" fill="#f9fbe9"/><path d="M 874.14 90.43 A 30.14 30.14 0 0 1  904.28 60.29 L 904.28 90.43" fill="#ffffff"/><rect x="844" y="90.43" width="30.14" height="30.14" fill="#ffffff"/><path d="M 844 120.57000000000001 A 30.14 30.14 0 0 0 874.14 90.43 L 844 90.43" fill="#ffffff"/><rect x="874.14" y="90.43" width="30.14" height="30.14" fill="#fafbeb"/><path d="M 874.14 90.43 A 30.14 30.14 0 0 0 904.28 120.57000000000001 L 904.28 90.43" fill="#1d1d1d"/><rect x="904.2857142857142" y="60.285714285714285" width="60.285714285714285" height="60.285714285714285" fill="#ffffff"/><rect x="904.29" y="60.29" width="30.14" height="30.14" fill="#d2dc4d"/><path d="M 904.29 90.43 A 30.14 30.14 0 0 1 934.43 60.29 L 934.43 67.825 A 22.605 22.605 0 0 0 911.8249999999999 90.43" fill="#ccd736"/><rect x="934.43" y="60.29" width="30.14" height="30.14" fill="#f7f8de"/><path d="M 934.43 60.29 A 30.14 30.14 0 0 1 964.5699999999999 90.43 L 957.035 90.43 A 22.605 22.605 0 0 0 934.43 67.825" fill="#020202"/><rect x="904.29" y="90.43" width="30.14" height="30.14" fill="#e5eb9a"/><path d="M 904.29 90.43 A 30.14 30.14 0 0 0 934.43 120.57000000000001 L 934.43 113.03500000000001 A 22.605 22.605 0 0 1 911.8249999999999 90.43" fill="#ffffff"/><rect x="934.43" y="90.43" width="30.14" height="30.14" fill="#606060"/><path d="M 934.43 120.57000000000001 A 30.14 30.14 0 0 0 964.5699999999999 90.43 L 957.035 90.43 A 22.605 22.605 0 0 1 934.43 113.03500000000001" fill="#464646"/><rect x="964.5714285714286" y="60.285714285714285" width="60.285714285714285" height="60.285714285714285" fill="#ffffff"/><rect x="964.57" y="60.29" width="30.14" height="30.14" fill="#ffffff"/><polygon points="994.71,60.29 994.71,90.43 964.57,90.43" fill="#ffffff"/><rect x="994.71" y="60.29" width="30.14" height="30.14" fill="#d2db4d"/><polygon points="994.71,60.29 1024.8500000000001,90.43 994.71,90.43" fill="#c9d429"/><rect x="964.57" y="90.43" width="30.14" height="30.14" fill="#ffffff"/><polygon points="964.57,90.43 994.71,90.43 964.57,120.57000000000001" fill="#ffffff"/><rect x="994.71" y="90.43" width="30.14" height="30.14" fill="#ffffff"/><polygon points="994.71,90.43 1024.8500000000001,90.43 1024.8500000000001,120.57000000000001" fill="#ffffff"/><rect x="1024.86" y="60.29" width="60.29" height="60.29" fill="#010101"/><path d="M 1024.86 60.29 A 60.29 60.29 0 0 1  1085.1499999999999 120.58 L 1024.86 60.29 A 60.29 60.29 0 0 0 1085.1499999999999 120.58" fill="#cdd3c0"/><rect x="1085.14" y="60.29" width="60.29" height="60.29" fill="#555555"/><rect x="1085.14" y="60.29" width="60.29" height="60.29" fill="#bababa"/><rect x="1145.43" y="60.29" width="60.29" height="60.29" fill="#e7ec9f"/><rect x="1145.43" y="60.29" width="60.29" height="60.29" fill="#7d7d7d"/><rect x="1205.7142857142858" y="60.285714285714285" width="60.285714285714285" height="60.285714285714285" fill="#ffffff"/><rect x="1205.71" y="60.29" width="30.14" height="30.14" fill="#d8e065"/><polygon points="1235.8500000000001,60.29 1235.8500000000001,90.43 1205.71,90.43" fill="#e9e9e9"/><rect x="1235.86" y="60.29" width="30.14" height="30.14" fill="#fcfcf2"/><polygon points="1235.86,60.29 1266,60.29 1235.86,90.43" fill="#ffffff"/><rect x="1205.71" y="90.43" width="30.14" height="30.14" fill="#d6df5e"/><polygon points="1205.71,90.43 1235.8500000000001,90.43 1235.8500000000001,120.57000000000001" fill="#5c5c5c"/><rect x="1235.86" y="90.43" width="30.14" height="30.14" fill="#ffffff"/><polygon points="1235.86,90.43 1266,120.57000000000001 1235.86,120.57000000000001" fill="#ffffff"/></g></svg>